<svg width="534" height="98" viewBox="0 0 534 98" fill="none" xmlns="http://www.w3.org/2000/svg">
<path d="M73.633 98H19.9008C6.96528 98 0 91.1498 0 78.428V61.2325H35.8214V64.5877C35.8214 67.2439 37.3851 68.7817 40.0859 68.7817H53.4479C56.1487 68.7817 57.7123 67.2439 57.7123 64.5877V61.2325C57.7123 58.5763 56.1487 57.0385 53.4479 57.0385H19.9008C6.96528 57.0385 0 50.1883 0 37.4665V19.572C0 6.85022 6.96528 0 19.9008 0H73.633C86.5685 0 93.5338 6.85022 93.5338 19.572V38.7247H57.7123V35.3695C57.7123 32.7133 56.1487 31.1755 53.4479 31.1755H40.228C37.5272 31.1755 35.9636 32.7133 35.9636 35.3695V38.7247C35.9636 41.3809 37.5272 42.9187 40.228 42.9187H73.633C86.5685 42.9187 93.5338 49.7689 93.5338 62.4907V78.428C93.5338 91.1498 86.5685 98 73.633 98Z" fill="black"/>
<path d="M174.2 98H118.193C106.537 98 97.866 89.4722 97.866 78.0086V19.7118C97.866 6.99002 104.831 0.139798 117.767 0.139798H174.2C185.856 0.139798 194.527 8.66761 194.527 20.1312V46.9729H158.706V39.5635C158.706 36.9073 157.142 35.3695 154.441 35.3695H137.952C135.251 35.3695 133.687 36.9073 133.687 39.5635V58.5763C133.687 61.2325 135.251 62.7703 137.952 62.7703H154.441C157.142 62.7703 158.706 61.2325 158.706 58.5763V51.1669H194.527V78.0086C194.527 89.4722 185.856 98 174.2 98Z" fill="black"/>
<path d="M259.199 98L238.445 69.4807H234.607V98H198.786V0.139798H262.326C286.776 0.139798 295.447 10.9044 295.447 28.9387V32.5735C295.447 47.5321 289.761 55.2211 277.678 60.9529L295.021 84.5792V98H259.199ZM253.94 30.0571H234.465V39.5635H253.94C256.64 39.5635 258.204 38.0257 258.204 35.3695V34.2511C258.204 31.5949 256.64 30.0571 253.94 30.0571Z" fill="black"/>
<path d="M299.564 0.139798H335.385V98H299.564V0.139798Z" fill="black"/>
<path d="M412.753 98H339.546V0.139798H412.753C426.683 0.139798 434.644 7.96861 434.644 22.5078V25.8631C434.644 37.7461 430.237 44.3167 421.992 46.8331V48.3709C430.237 50.7475 436.207 57.4579 436.207 68.5021V74.0942C436.207 88.6334 428.247 98 412.753 98ZM396.121 58.5763H375.226V68.0827H396.121C398.822 68.0827 400.386 66.5449 400.386 63.8887V62.7703C400.386 60.1141 398.822 58.5763 396.121 58.5763ZM394.558 30.0571H375.226V39.5635H394.558C397.259 39.5635 398.822 38.0257 398.822 35.3695V34.2511C398.822 31.5949 397.259 30.0571 394.558 30.0571Z" fill="black"/>
<path d="M514.099 98H460.367C447.432 98 440.466 91.1498 440.466 78.428V57.4579H476.288V62.3509C476.288 65.0071 477.851 66.5449 480.552 66.5449H493.914C496.615 66.5449 498.179 65.0071 498.179 62.3509V57.4579C498.179 54.8017 496.615 53.2639 493.914 53.2639H467.759V41.6605L497.326 31.5949V31.3153H440.466V0H532.578V28.9387C532.578 31.3153 531.299 32.9929 528.883 33.6919L501.874 40.6819V40.9615H514.099C527.035 40.9615 534 47.8117 534 60.5335V78.428C534 91.1498 527.035 98 514.099 98Z" fill="black"/>
</svg>
