<svg width="107" height="98" viewBox="0 0 107 98" fill="none" xmlns="http://www.w3.org/2000/svg">
<path d="M107 15.8019V2.63576H81.4315V15.8176H90.1411V25.0606H87.1874V34.7743H79.8713L74.7516 41.5692L66.5721 36.1082L71.0556 28.9053L76.0542 30.6785L76.751 16.5865L76.7964 15.5822V15.1742C76.7964 10.1996 74.4335 5.3349 70.1014 2.43176C63.3003 -2.11911 54.2422 -0.0947582 49.8495 6.93555L41.9124 19.6623L30.7489 12.224L2.15091 31.3062L17.1467 67.3993H26.8106V53.2132L26.7954 49.3528H21.403L24.2507 40.7218L26.6591 33.4247L26.7651 33.0952H30.7489V76.658H27.2953L23.5842 71.1185L23.4782 71.2911L23.5388 71.1185H8.7551L0 97.9843H14.7988L14.8897 97.6861L21.403 87.1721V98H41.9881L56.2416 78.3842H62.1491L48.4408 98H92.9585L85.1426 85.3988H78.3869L82.7493 78.3842L90.8379 65.3593L81.7799 59.3176H79.0382H74.7516H66.0116H65.0725H63.1336V58.7527V55.1904H84.158L101.244 41.4751V25.0292H98.2903V15.7862H107V15.8019ZM66.36 14.4366C67.9202 14.4366 69.1925 15.7548 69.1925 17.3712C69.1925 18.9875 67.9202 20.3057 66.36 20.3057C64.7998 20.3057 63.5275 18.9875 63.5275 17.3712C63.5275 15.7548 64.7998 14.4366 66.36 14.4366Z" fill="black"/>
</svg>
