<svg width="41" height="41" viewBox="0 0 41 41" fill="none" xmlns="http://www.w3.org/2000/svg">
<g opacity="0.83">
<mask id="mask0_126_136" style="mask-type:luminance" maskUnits="userSpaceOnUse" x="7" y="6" width="26" height="28">
<path d="M32.1303 6.54443H7.85352V33.4696H32.1303V6.54443Z" fill="white"/>
</mask>
<g mask="url(#mask0_126_136)">
<path d="M32.085 30.6386L30.28 33.1832L11.9769 33.47C11.9658 33.4672 9.29538 32.7856 9.19336 32.0218C9.09138 31.2558 8.62771 15.6432 8.625 15.5522C9.10458 15.6019 31.7981 14.7788 31.7981 14.7788L32.085 30.6386ZM15.8152 25.5193C15.2793 25.2573 12.5101 25.8996 12.5101 25.8996C12.316 25.9232 12.1752 26.096 12.1961 26.285H12.1948C12.1927 26.3072 11.926 29.012 12.5322 29.437C13.1417 29.8618 15.741 29.3681 16.1266 28.9257C16.5104 28.485 16.3492 25.7835 15.8152 25.5193ZM22.4851 25.1794C22.1521 24.9186 19.1874 25.1974 19.1579 25.2002C18.9617 25.2004 18.8028 25.3571 18.8024 25.5479C18.8024 25.5479 18.4105 28.7091 18.8011 28.9633C19.426 29.3634 22.2744 29.1157 22.5007 28.9166C22.7915 28.6588 22.9514 25.5511 22.4851 25.1794ZM15.7503 18.8741C15.4139 18.6126 12.4232 18.8962 12.4232 18.8962C12.2269 18.8967 12.0692 19.0531 12.0689 19.244C12.0646 19.2797 11.678 22.4067 12.0663 22.6594C12.6911 23.0594 15.5387 22.8117 15.7659 22.6126C16.0571 22.3575 16.2171 19.2452 15.7503 18.8741Z" fill="white"/>
<path d="M29.5396 6.71775C29.5396 6.71775 29.4563 7.45274 29.3566 8.32293L31.5185 8.27493L32.1296 13.4058L8.26617 14.3401V11.1764L7.85352 8.80565L11.5076 8.7226C11.5018 7.82792 11.5658 6.91497 11.6647 6.78264C11.8113 6.58744 13.6892 6.37699 14.1081 6.78653C14.2421 6.91884 14.2489 7.81888 14.2249 8.66161L18.8913 8.55781L18.7316 6.99415C18.7145 6.82042 18.8482 6.66645 19.0236 6.66066L21.6837 6.56334C21.8571 6.5559 22.0016 6.69968 21.9977 6.87347C21.9893 7.24428 21.9734 7.88167 21.9576 8.48903L26.4267 8.38782L26.4551 7.1317C26.4628 6.78771 26.7542 6.5208 27.0974 6.54387L29.5396 6.71775Z" fill="white"/>
</g>
</g>
</svg>
