<svg width="569" height="829" viewBox="0 0 569 829" fill="none" xmlns="http://www.w3.org/2000/svg">
<path d="M562.434 145.359L556.429 23.3723C556.427 23.3273 556.431 23.2823 556.442 23.2388L562.29 0.558105C562.363 0.275451 562.149 -2.91254e-07 561.858 -3.04014e-07L329.196 -1.0474e-05L272.654 4.90184C272.632 4.9038 272.609 4.90404 272.587 4.90251L197.463 -1.62322e-05L20.0133 4.89591C19.8216 4.90116 19.6546 5.02836 19.5985 5.21177L0.0233486 69.2644C0.00894434 69.3114 0.00247461 69.3604 0.00406152 69.4095L7.21072 290C7.21182 290.033 7.20925 290.066 7.20309 290.098L0.0112524 327.899C0.00484368 327.933 0.00234123 327.967 0.00380607 328.001L13.591 651.217L13.5909 689.909C13.5909 689.975 13.5761 690.041 13.5475 690.101L7.2558 703.295C7.22718 703.355 7.21235 703.421 7.21235 703.487L7.21234 774.282L7.21234 828.457C7.21234 828.703 7.41229 828.903 7.65894 828.903L77.3777 828.903L130.539 821.558C130.596 821.55 130.654 821.554 130.71 821.568L159.414 828.889C159.45 828.899 159.487 828.903 159.524 828.903L544.895 828.903C544.939 828.903 544.984 828.897 545.026 828.883L568.443 821.66C568.655 821.595 568.787 821.383 568.752 821.164L553.291 723.285C553.285 723.247 553.284 723.209 553.287 723.171L562.434 629.815L562.434 454.624C562.434 454.596 562.431 454.568 562.426 454.54L553.291 406.698C553.285 406.665 553.282 406.632 553.284 406.599L562.434 145.359Z" fill="black"/>
</svg>
