<svg width="41" height="41" viewBox="0 0 41 41" fill="none" xmlns="http://www.w3.org/2000/svg">
<g clip-path="url(#clip0_126_127)">
<path d="M11.2411 7.73512L5.23633 7.51562L5.95639 18.3224L9.51127 21.8818H16.2275L16.0458 18.1899L9.21719 18.004L8.50362 10.7666L14.1235 11.425" fill="#D2D2D2"/>
<path d="M28.2523 7.4919L35.574 7.15771L35.1372 18.7713L32.6441 21.5733L24.5093 22.2397L24.332 18.5498L32.071 18.5735L32.51 10.8872L25.8349 11.1304" fill="#D2D2D2"/>
<path d="M30.6611 5.89014L26.7715 20.0806L22.5586 24.7036V28.8423H17.333V24.7036L12.9668 19.269L10.3242 5.89014H30.6611Z" fill="#D2D2D2"/>
<path d="M13.0206 30.2642C13.0206 30.2642 13.3614 33.8959 13.0206 34.4333C12.6799 34.9707 27.0166 34.4333 27.0166 34.4333V30.2642H13.0206Z" fill="#D2D2D2"/>
</g>
<defs>
<clipPath id="clip0_126_127">
<rect width="30.3376" height="28.7818" fill="white" transform="translate(5.23633 5.89014)"/>
</clipPath>
</defs>
</svg>
