<svg width="197" height="197" viewBox="0 0 197 197" fill="none" xmlns="http://www.w3.org/2000/svg">
<path d="M19 103.849L59.9064 144H132.067L179 104.946L140.297 66.8117L95.2098 53L45.1974 76.4228L19 103.849Z" fill="#E3DCDC"/>
<path d="M128.056 100.783L93.5061 104.253L121.333 80.4828L111.191 71.6875C111.191 71.6875 93.6191 68.4432 92.169 69.5215C90.7188 70.5999 76.669 79.1326 76.1511 80.9423C75.6332 82.7519 68.4858 90.3751 70.1055 100.624C71.7158 110.882 70.7741 114.557 72.5445 117.68C74.3148 120.793 84.0706 131.098 87.5548 132.532C91.039 133.958 107.038 134.661 112.622 133.339C118.206 132.026 123.188 123.728 124.591 121.749C126.003 119.771 128.329 109.635 128.103 102.405C128.084 101.89 128.066 101.346 128.047 100.793L128.056 100.783Z" fill="#191919"/>
</svg>
