<?xml version="1.0" encoding="UTF-8" standalone="no"?>
<!DOCTYPE svg PUBLIC "-//W3C//DTD SVG 1.1//EN" "http://www.w3.org/Graphics/SVG/1.1/DTD/svg11.dtd">
<svg xmlns="http://www.w3.org/2000/svg" version="1.1" viewBox="0.00 0.00 1203.00 943.00">
<path fill="#d7abc5" d="
  M 601.70 0.00
  Q 653.73 3.13 690.11 37.65
  C 720.96 66.91 738.14 108.90 736.28 151.02
  Q 734.85 183.19 729.25 294.80
  A 0.29 0.28 -78.8 0 1 728.87 295.06
  L 681.85 278.32
  A 0.72 0.72 0.0 0 0 680.99 278.62
  L 638.59 347.12
  A 0.49 0.48 -57.2 0 0 638.73 347.78
  L 711.07 396.11
  A 0.80 0.77 -26.5 0 0 711.52 396.25
  L 986.44 396.25
  A 0.31 0.31 0.0 0 1 986.75 396.56
  L 986.75 424.10
  A 0.41 0.41 0.0 0 0 987.16 424.51
  L 1075.17 424.51
  A 0.46 0.45 90.0 0 0 1075.62 424.05
  L 1075.62 341.61
  A 0.61 0.61 0.0 0 1 1076.23 341.00
  L 1201.90 341.00
  A 0.62 0.62 0.0 0 1 1202.52 341.62
  L 1202.52 585.50
  A 0.62 0.62 0.0 0 1 1201.90 586.12
  L 1076.41 586.12
  A 0.41 0.40 -0.0 0 1 1076.00 585.72
  L 1076.00 503.21
  A 0.59 0.59 0.0 0 0 1075.41 502.62
  L 987.36 502.62
  A 0.37 0.36 90.0 0 0 987.00 502.99
  L 987.00 530.60
  A 0.45 0.45 0.0 0 1 986.55 531.05
  L 606.01 531.05
  A 0.64 0.64 0.0 0 0 605.37 531.69
  L 605.37 570.43
  A 0.34 0.33 0.0 0 0 605.71 570.76
  L 783.69 570.76
  A 1.26 1.21 61.4 0 1 784.39 570.98
  L 870.60 628.58
  A 0.58 0.57 -57.8 0 1 870.77 629.35
  L 751.97 821.24
  A 0.34 0.34 0.0 0 0 752.26 821.76
  L 816.05 821.76
  A 0.69 0.67 74.1 0 1 816.63 822.09
  L 891.32 943.00
  L 464.51 943.00
  L 595.62 754.70
  A 0.29 0.29 0.0 0 0 595.38 754.25
  L 539.84 754.25
  A 1.11 1.10 18.1 0 0 538.95 754.70
  L 402.62 943.00
  L 205.27 943.00
  L 205.28 839.68
  A 0.27 0.27 0.0 0 0 204.78 839.54
  L 143.13 939.39
  A 4.88 4.78 -21.2 0 0 142.63 940.49
  L 141.88 943.00
  L 140.52 943.00
  Q 139.85 942.69 139.50 943.00
  L 139.07 943.00
  Q 139.03 942.96 139.00 942.92
  A 0.20 0.18 71.7 0 0 138.84 942.83
  L 3.80 943.00
  L 3.14 943.00
  Q 1.60 943.08 0.49 942.65
  A 0.42 0.42 0.0 0 1 0.24 942.12
  L 83.77 684.88
  A 0.75 0.74 -80.6 0 1 84.47 684.37
  L 224.85 684.37
  A 2.31 2.29 -16.6 0 1 226.77 685.40
  L 261.47 737.23
  A 0.92 0.91 -16.7 0 0 262.23 737.63
  L 294.51 737.63
  A 0.37 0.37 0.0 0 0 294.88 737.26
  L 294.88 318.94
  A 0.44 0.44 0.0 0 0 294.44 318.50
  L 256.99 318.50
  A 0.47 0.47 0.0 0 0 256.55 318.81
  L 205.43 474.26
  A 0.47 0.47 0.0 0 0 205.88 474.88
  L 256.71 474.88
  A 0.39 0.38 0.0 0 1 257.10 475.26
  L 257.10 647.90
  A 0.60 0.60 0.0 0 1 256.50 648.50
  L 164.92 648.50
  A 0.79 0.77 78.7 0 1 164.20 648.01
  L 20.83 301.72
  A 0.64 0.63 -29.0 0 1 21.06 300.94
  L 294.44 117.90
  A 0.69 0.68 -44.4 0 1 295.21 117.90
  L 401.68 189.04
  A 0.27 0.27 0.0 0 0 402.06 188.96
  Q 438.33 130.47 479.77 64.02
  Q 491.09 45.86 510.11 30.64
  Q 544.92 2.78 589.75 0.00
  L 601.70 0.00
  Z
  M 636.4579 138.9104
  A 28.24 27.15 -89.7 0 0 609.1604 167.0078
  A 28.24 27.15 -89.7 0 0 636.1621 195.3896
  A 28.24 27.15 -89.7 0 0 663.4596 167.2922
  A 28.24 27.15 -89.7 0 0 636.4579 138.9104
  Z"
/>
</svg>
