<svg width="33" height="33" viewBox="0 0 33 33" fill="none" xmlns="http://www.w3.org/2000/svg">
<g opacity="0.83">
<g clip-path="url(#clip0_103_1741)">
<path d="M25.6807 24.6099L24.3223 26.5249L10.5479 26.7407C10.5396 26.7386 8.5299 26.2257 8.45312 25.6509C8.37637 25.0744 8.02743 13.3248 8.02539 13.2563C8.38631 13.2937 25.4648 12.6743 25.4648 12.6743L25.6807 24.6099ZM13.4365 20.7573C13.0332 20.5601 10.9492 21.0435 10.9492 21.0435C10.8031 21.0612 10.6972 21.1913 10.7129 21.3335H10.7119C10.7103 21.3502 10.5096 23.3858 10.9658 23.7056C11.4245 24.0253 13.3807 23.6538 13.6709 23.3208C13.9597 22.9892 13.8384 20.9561 13.4365 20.7573ZM18.4561 20.5015C18.2055 20.3052 15.9743 20.515 15.9521 20.5171C15.8045 20.5173 15.6849 20.6352 15.6846 20.7788C15.6846 20.7788 15.3897 23.1578 15.6836 23.3491C16.1539 23.6502 18.2975 23.4638 18.4678 23.314C18.6867 23.12 18.807 20.7812 18.4561 20.5015ZM13.3877 15.7563C13.1345 15.5595 10.8838 15.7729 10.8838 15.7729C10.7361 15.7733 10.6174 15.891 10.6172 16.0347C10.6139 16.0615 10.323 18.4148 10.6152 18.605C11.0854 18.906 13.2284 18.7196 13.3994 18.5698C13.6186 18.3778 13.739 16.0356 13.3877 15.7563Z" fill="white"/>
<path d="M23.7656 6.60798C23.7656 6.60798 23.7029 7.16111 23.6279 7.81599L25.2549 7.77986L25.7148 11.6412L7.75586 12.3443V9.96345L7.44531 8.17927L10.1953 8.11677C10.1909 7.44346 10.2391 6.7564 10.3135 6.65681C10.4238 6.50991 11.8371 6.35153 12.1523 6.65974C12.2532 6.75931 12.2583 7.43665 12.2402 8.07087L15.752 7.99275L15.6318 6.81599C15.619 6.68524 15.7196 6.56937 15.8516 6.56501L17.8535 6.49177C17.984 6.48617 18.0927 6.59438 18.0898 6.72517C18.0835 7.00423 18.0715 7.48391 18.0596 7.94099L21.4229 7.86482L21.4443 6.9195C21.4501 6.66063 21.6694 6.45976 21.9277 6.47712L23.7656 6.60798Z" fill="white"/>
</g>
</g>
<defs>
<clipPath id="clip0_103_1741">
<rect width="18.27" height="20.2631" fill="white" transform="translate(7.44531 6.47754)"/>
</clipPath>
</defs>
</svg>
