<svg width="41" height="41" viewBox="0 0 41 41" fill="none" xmlns="http://www.w3.org/2000/svg">
<path d="M32.8477 10.7324L32.1426 14.9316L34.5273 19.8438L32.1426 20.5645L31.667 24.2803L26.7393 24.7549L30.4551 28.3525L32.8477 25.9512L34.5273 27.9873L28.3555 33.8027L21.1064 26.8467L18.7061 32.3057L10.2607 27.9873L8.7002 30.626L6.54492 29.6035L10.2607 22.1807L16.0762 24.7549L10.2607 18.7021V10.7324L14.3965 7.19922H29.0771L32.8477 10.7324ZM17.3281 11.3818L14.4521 14.3135L17.0352 16.9521L21.1621 18.3857L25.3613 17.0146L28.1738 14.3135L25.3613 11.3818L21.1621 10.3047L17.3281 11.3818ZM21.3047 12.666C22.2279 12.666 22.9766 13.4147 22.9766 14.3379C22.9763 15.2609 22.2278 16.0088 21.3047 16.0088C20.3816 16.0088 19.6331 15.2609 19.6328 14.3379C19.6328 13.4147 20.3815 12.666 21.3047 12.666Z" fill="#D5D5D5"/>
</svg>
