<svg width="41" height="41" viewBox="0 0 41 41" fill="none" xmlns="http://www.w3.org/2000/svg">
<path d="M23.0068 16.6284L31.0234 15.4907L31.8955 33.9302L8.55566 34.4673L7.85449 25.8833L8.55566 8.28564L22.2998 7.96729L23.0068 16.6284ZM26.9463 26.0249C26.9463 26.0249 12.7168 25.5729 12.0186 26.021C11.5623 26.3138 11.705 27.864 11.7061 27.8755H27.4336L26.9482 26.0249H26.9463ZM27.0029 20.2075C26.9735 20.207 12.4838 19.9591 11.7939 20.4067C11.3421 20.701 11.4854 22.2612 11.4854 22.2612H27.0029V20.2075ZM21.0537 14.7456C16.9409 14.7025 11.5372 14.809 11.4834 14.8101V17.0034H21.4609L21.4629 17.0015L21.0537 14.7456Z" fill="#D1D1D1"/>
<path d="M23.9961 15.4067L23.2764 6.59082L32.5442 14.1944L23.9961 15.4067Z" fill="#D2D2D2"/>
</svg>
