<svg width="179" height="179" viewBox="0 0 179 179" fill="none" xmlns="http://www.w3.org/2000/svg">
<path d="M96.9323 33L81.4697 34.7374L77.8542 34.945L76.4286 37.817L77.2345 64.9432L79.8384 67.7042L98 67.5111L100 63.0292L99.8964 49.0845L99.115 34.4515L96.9323 33Z" fill="#DBDBDB"/>
<path d="M144 97.7516L142.269 82.2295L142.062 78.6002L139.201 77.169L112.179 77.9781L109.429 80.592L109.621 98.8233L114.086 100.831L127.977 100.727L142.554 99.9426L144 97.7516Z" fill="#DBDBDB"/>
<path d="M82.6391 145L98.1018 143.263L101.717 143.055L103.143 140.183L102.337 113.057L99.733 110.296L81.5714 110.489L79.5714 114.971L79.675 128.915L80.4564 143.549L82.6391 145Z" fill="#DBDBDB"/>
<path d="M34 80.2485L35.7307 95.7705L35.9376 99.3998L38.7986 100.831L65.821 100.022L68.5714 97.408L68.379 79.1767L63.9143 77.169L50.023 77.273L35.4459 78.0574L34 80.2485Z" fill="#DBDBDB"/>
<path d="M55.7182 43.5404L46.0083 55.7447L43.598 58.4579L44.6129 61.5006L64.2906 80.1097L68.0767 80.2137L80.7828 67.1856L79.04 62.5968L69.1441 52.81L58.284 43.0175L55.7182 43.5404Z" fill="#DBDBDB"/>
<path d="M134.611 55.917L122.454 46.1698L119.751 43.7503L116.72 44.7691L98.1818 64.5223L98.0782 68.3229L111.056 81.0779L115.628 79.3283L125.377 69.3944L135.132 58.4927L134.611 55.917Z" fill="#DBDBDB"/>
<path d="M124.314 135.575L134.024 123.371L136.434 120.658L135.419 117.615L115.741 99.0058L111.955 98.9018L99.249 111.93L100.992 116.519L110.888 126.306L121.748 136.098L124.314 135.575Z" fill="#DBDBDB"/>
<path d="M44.5002 121.621L56.6578 131.368L59.3605 133.788L62.3916 132.769L80.9295 113.016L81.0331 109.215L68.0549 96.4601L63.4836 98.2096L53.7342 108.144L43.9792 119.045L44.5002 121.621Z" fill="#DBDBDB"/>
<path fill-rule="evenodd" clip-rule="evenodd" d="M78.3223 42.7754C80.5913 41.2514 108.086 45.8364 108.086 45.8364L123.954 58.2666L133.474 71.4008L134.473 86.9567L134.459 86.9691C134.489 87.7509 134.517 88.5201 134.547 89.249C134.9 99.4659 131.262 113.79 129.051 116.587C126.856 119.383 119.062 131.111 110.325 132.967C101.587 134.835 76.5555 133.841 71.1035 131.827C65.6521 129.799 50.3886 115.236 47.618 110.836C44.8481 106.423 46.321 101.228 43.8015 86.7303C41.2677 72.2465 52.4504 61.4727 53.2607 58.9151C54.0735 56.3568 76.05 44.301 78.3223 42.7754ZM97.5554 69.2149C97.4922 69.2043 85.2281 67.1624 84.2136 67.8438C83.1948 68.5278 73.3455 73.9302 72.9788 75.078C72.6155 76.2245 67.6027 81.0554 68.7387 87.5483C69.868 94.0466 69.2081 96.3752 70.4498 98.3533C71.6919 100.326 78.5332 106.853 80.9771 107.763C83.4208 108.666 94.6419 109.112 98.559 108.274C102.476 107.442 105.971 102.186 106.955 100.932C107.946 99.6787 109.576 93.256 109.418 88.6759C109.405 88.3493 109.391 88.0049 109.378 87.6546L109.384 87.6484L108.937 80.6761L104.668 74.7884L97.5554 69.2149Z" fill="#DBDBDB"/>
</svg>
