<svg width="233" height="182" viewBox="0 0 233 182" fill="none" xmlns="http://www.w3.org/2000/svg">
<path d="M200 29.3464V4.89499H152.208V29.3755H168.488V46.541H162.967V64.5809H149.292L139.723 77.2L124.434 67.0581L132.814 53.6812L142.157 56.9744L143.46 30.8036L143.545 28.9384V28.1806C143.545 18.9422 139.128 9.90767 131.031 4.51612C118.318 -3.93549 101.387 -0.175979 93.1767 12.8803L78.3409 36.5157L57.4745 22.7017L4.02038 58.1402L32.0498 125.17H50.1133V98.8245L50.0849 91.6552H40.0057L45.3284 75.6262L49.8301 62.0745L50.0283 61.4625H57.4745V142.365H51.0193L44.0827 132.077L43.8845 132.398L43.9977 132.077H16.3647L0 181.971H27.6614L27.8313 181.417L40.0057 161.891V182H78.4824L105.125 145.571H116.166L90.5436 182H173.754L159.145 158.598H146.518L154.672 145.571L169.79 121.382L152.86 110.161H147.735H139.723H123.386H121.631H118.007V109.112V102.497H157.305L189.241 77.0251V46.4828H183.72V29.3172H200V29.3464ZM124.037 26.8109C126.954 26.8109 129.332 29.2589 129.332 32.2607C129.332 35.2625 126.954 37.7106 124.037 37.7106C121.121 37.7106 118.743 35.2625 118.743 32.2607C118.743 29.2589 121.121 26.8109 124.037 26.8109Z" fill="#D7ABC5"/>
</svg>
