<svg width="41" height="41" viewBox="0 0 41 41" fill="none" xmlns="http://www.w3.org/2000/svg">
<path fill-rule="evenodd" clip-rule="evenodd" d="M26.8088 23.6568C26.8132 21.0469 25.3762 15.6224 19.5954 14.8021C13.8147 13.982 10.3664 17.5724 9.36472 19.4701L4.58105 27.2418L7.5885 28.0529L7.3777 33.6984L26.3197 33.7438L26.8088 23.6568ZM15.331 22.2067C16.2022 22.8028 16.4247 23.9924 15.8286 24.8635C15.2325 25.7345 14.0434 25.9575 13.1723 25.3614C12.3012 24.7654 12.0778 23.5759 12.6738 22.7048C13.2699 21.8336 14.4599 21.6106 15.331 22.2067Z" fill="#D1D1D1"/>
<path d="M23.7315 14.0811L30.9345 8.6376L28.3307 16.072L36.309 16.5341L27.1802 19.6831C26.0692 17.3585 23.7635 14.4239 20.0993 13.5909L20.9538 6.54443L23.7315 14.0811Z" fill="#D1D1D1"/>
</svg>
